# AST/ASF file generated using VICON BodyLanguage
# -----------------------------------------------
:version 1.10
:name VICON
:units
  mass 1.0
  length 0.45
  angle deg
:documentation
   .ast/.asf automatically generated from VICON data using
   VICON BodyBuilder and BodyLanguage model FoxedUp or BRILLIANT.MOD
:root
   order TX TY TZ RX RY RZ
   axis XYZ
   position 0 0 0  
   orientation 0 0 0 
:bonedata
  begin
     id 1 
     name lhipjoint
     direction 0.78388 -0.462562 0.414208 
     length 3.01181 
     axis 0 0 0  XYZ
  end
  begin
     id 2 
     name lfemur
     direction 0.34202 -0.939693 0  
     length 6.04673  
     axis 0 0 20  XYZ
    dof rx ry rz
    limits (-160.0 20.0)
           (-70.0 70.0)
           (-60.0 70.0)
  end
  begin
     id 3 
     name ltibia
     direction 0.34202 -0.939693 0   
     length 7.211   
     axis 0 0 20   XYZ
    dof rx
    limits (-10.0 170.0)
  end
  begin
     id 4 
     name lfoot
     direction 0.121887 -0.334882 0.934344   
     length 2.13567   
     axis -90 7.62852e-016 20   XYZ
    dof rx rz
    limits (-45.0 90.0)
           (-70.0 20.0)
  end
  begin
     id 5 
     name ltoes
     direction 1.53555e-011 -4.2179e-011 1   
     length 1.05957   
     axis -90 7.62852e-016 20   XYZ
    dof rx
    limits (-90.0 20.0)
  end
  begin
     id 6 
     name rhipjoint
     direction -0.769387 -0.475875 0.426129   
     length 2.92756  
     axis 0 0 0  XYZ 
  end
  begin
     id 7 
     name rfemur
     direction -0.34202 -0.939693 0   
     length 6.35468   
     axis 0 0 -20   XYZ
    dof rx ry rz
    limits (-160.0 20.0)
           (-70.0 70.0)
           (-70.0 60.0)
  end
  begin
     id 8 
     name rtibia
     direction -0.34202 -0.939693 0   
     length 7.37886   
     axis 0 0 -20   XYZ
    dof rx
    limits (-10.0 170.0)
 end
 begin
     id 9 
     name rfoot
     direction -0.101763 -0.279592 0.954711   
     length 2.21478  
     axis -90 -7.62852e-016 -20   XYZ
    dof rx rz
    limits (-45.0 90.0)
           (-20.0 70.0)
  end
  begin
     id 10 
     name rtoes
     direction -1.53494e-011 -4.21851e-011 1   
     length 1.10506   
     axis -90 -7.62852e-016 -20   XYZ
    dof rx
    limits (-90.0 20.0)
  end
  begin
     id 11 
     name lowerback
     direction 0.00747405 0.999267 0.0375481   
     length 2.13259   
     axis 0 0 0   XYZ
    dof rx ry rz
    limits (-20.0 45.0)
           (-30.0 30.0)
           (-30.0 30.0)
  end
  begin
     id 12 
     name upperback
     direction 0.00661626 0.996177 0.0871029   
     length 2.10528   
     axis 0 0 0   XYZ
    dof rx ry rz
    limits (-20.0 45.0)
           (-30.0 30.0)
           (-30.0 30.0)
  end
  begin
     id 13 
     name thorax
     direction 0.00320659 0.997679 0.0680167   
     length 2.11338   
     axis 0 0 0   XYZ
    dof rx ry rz
    limits (-20.0 45.0)
           (-30.0 30.0)
           (-30.0 30.0)
  end
  begin
     id 14 
     name lowerneck
     direction 0.0374841 0.973033 0.227602   
     length 1.42765   
     axis 0 0 0   XYZ
    dof rx ry rz
    limits (-20.0 45.0)
           (-30.0 30.0)
           (-30.0 30.0)
  end
  begin
     id 15 
     name upperneck
     direction 0.00481585 0.989155 -0.146795   
     length 1.47593   
     axis 0 0 0   XYZ
    dof rx ry rz
    limits (-20.0 45.0)
           (-30.0 30.0)
           (-30.0 30.0)
  end
  begin
     id 16
     name head
     direction -0.00292522 0.997206 -0.0746423  
     length 1.48116  
     axis 0 0 0   XYZ
    dof rx ry rz
    limits (-20.0 45.0)
           (-30.0 30.0)
           (-30.0 30.0)
  end
  begin
     id 17 
     name lclavicle
     direction 0.951444 0.305606 0.0368784  
     length 3.01855  
     axis 0 0 0   XYZ
    dof ry rz
    limits (-20.0 10.0)
           (0.0 20.0)
  end
  begin
     id 18 
     name lhumerus
     direction 1 -4.48977e-011 2.61664e-027   
     length 5.52731   
     axis 180 -30 -90   XYZ
    dof rx ry rz
    limits (-60.0 90.0)
           (-90.0 90.0)
           (-90.0 90.0)
  end
  begin
     id 19
     name lradius
     direction 1 -4.48944e-011 8.22157e-027   
     length 3.11059   
     axis 180 -30 -90   XYZ
    dof rx
    limits (-10.0 170.0)
  end
  begin
     id 20
     name lwrist
     direction 1 -4.48976e-011 1.5779e-026   
     length 1.5553   
     axis -1.15221e-014 90 90   XYZ
    dof ry
    limits (-180.0 0.0)
 end
  begin
     id 21 
     name lhand
     direction 1 -4.49025e-011 3.1558e-026   
     length 0.419626   
     axis -2.01367e-014 90 90   XYZ
    dof rx rz
    limits (-90.0 90.0)
           (-45.0 45.0)
  end
  begin
     id 22 
     name lfingers
     direction 1 -4.4904e-011 6.31161e-026   
     length 0.338313   
     axis -4.02734e-014 90 90   XYZ
    dof rx
    limits (0.0 90.0)
  end
  begin
     id 23
     name lthumb
     direction 0.707107 -6.35004e-011 0.707107   
     length 0.485752   
     axis -90 45 2.85299e-015   XYZ
    dof rx rz
    limits (-45.0 45.0)
           (-45.0 45.0)
  end
  begin
     id 24 
     name rclavicle
     direction -0.968876 0.223791 0.105816   
     length 3.04177  
     axis 0 0 0   XYZ 
    dof ry rz
    limits (-10.0 20.0)
           (-20.0 0.0)
  end
  begin
     id 25 
     name rhumerus
     direction -1 -4.48962e-011 -1.01384e-027  
     length 5.25396   
     axis 180 30 90   XYZ
    dof rx ry rz
    limits (-90.0 60.0)
           (-90.0 90.0)
           (-90.0 90.0)
  end
  begin
     id 26 
     name rradius
     direction -1 -4.48955e-011 8.88542e-027   
     length 3.10567   
     axis 180 30 90   XYZ
    dof rx
    limits (-10.0 170.0)
  end
  begin
     id 27 
     name rwrist
     direction -1 -4.48994e-011 1.5779e-026   
     length 1.55283   
     axis -1.15221e-014 -90 -90   XYZ
    dof ry
    limits (-180.0 0.0)
  end
  begin
     id 28
     name rhand
     direction -1 -4.48891e-011 3.1558e-026   
     length 0.498676   
     axis -2.01367e-014 -90 -90   XYZ
    dof rx rz
    limits (-90.0 90.0)
           (-45.0 45.0)
  end
  begin
     id 29
     name rfingers
     direction -1 -4.48972e-011 6.31161e-026   
     length 0.402045   
     axis -4.02734e-014 -90 -90   XYZ
    dof rx
    limits (0.0 90.0)
  end
  begin
     id 30
     name rthumb
     direction -0.707107 -6.34849e-011 0.707107   
     length 0.577259   
     axis -90 -45 -2.85299e-015   XYZ
    dof rx rz
    limits (-45.0 45.0)
           (-45.0 45.0)
  end
:hierarchy
  begin
    root lhipjoint rhipjoint lowerback
    lhipjoint lfemur
    lfemur ltibia
    ltibia lfoot
    lfoot ltoes
    rhipjoint rfemur
    rfemur rtibia
    rtibia rfoot
    rfoot rtoes
    lowerback upperback
    upperback thorax
    thorax lowerneck lclavicle rclavicle
    lowerneck upperneck
    upperneck head
    lclavicle lhumerus
    lhumerus lradius
    lradius lwrist
    lwrist lhand lthumb
    lhand lfingers
    rclavicle rhumerus
    rhumerus rradius
    rradius rwrist
    rwrist rhand rthumb
    rhand rfingers
  end

#!OML:ASF H:\Pregnant\Project 1\Capture day 1\Session 1\femalepreg.ASF
:FULLY-SPECIFIED
:DEGREES
1024
root 7.54876 15.146 23.458 188.062 -79.4151 -169.075
lowerback -16.5769 0.972777 1.47467
upperback -6.99585 0.536879 1.40827
thorax 1.8493 0.0572829 0.732924
lowerneck -19.871 4.77601 5.47181
upperneck 30.589 4.33302 0.27592
head 13.8656 2.34962 -0.110838
rclavicle -3.50358e-014 -3.97569e-016
rhumerus -44.2365 2.89402 -82.6343
rradius 35.8777
rwrist 6.52647
rhand -20.6515 -13.4547
rfingers 7.12502
rthumb 5.71087 -43.3578
lclavicle -3.50358e-014 -3.97569e-016
lhumerus -51.9391 -17.5032 94.0414
lradius 36.5986
lwrist 42.9007
lhand -31.0978 7.33085
lfingers 7.12502
lthumb -4.37759 37.2656
rfemur -39.4096 23.4487 20.3104
rtibia 44.9062
rfoot -21.2104 -14.5831
rtoes 1.54856
lfemur -34.8031 -12.9149 -20.2876
ltibia 33.6719
lfoot -14.6457 16.0567
ltoes 3.70117
1025
root 7.55938 15.1456 23.4412 188.181 -79.4605 -169.24
lowerback -16.425 0.972259 1.50023
upperback -7.00071 0.542387 1.34219
thorax 1.7654 0.0599747 0.648663
lowerneck -20.0003 4.78416 5.42982
upperneck 30.6739 4.32755 0.342544
head 13.927 2.35134 -0.0744362
rclavicle -2.33696e-014 -1.17283e-014
rhumerus -43.9489 2.92772 -82.831
rradius 35.801
rwrist 6.23198
rhand -20.5599 -13.546
rfingers 7.12502
rthumb 5.79925 -43.4467
lclavicle -2.33696e-014 -1.17283e-014
lhumerus -51.6798 -18.2297 94.3323
lradius 36.4293
lwrist 42.602
lhand -31.0528 7.24968
lfingers 7.12502
lthumb -4.33416 37.1853
rfemur -39.3773 23.4297 20.3672
rtibia 44.9041
rfoot -21.2195 -14.5869
rtoes 1.72409
lfemur -34.7877 -12.954 -20.2461
ltibia 33.6688
lfoot -14.6279 16.1051
ltoes 3.49541
1026
root 7.57072 15.1451 23.4247 188.3 -79.4993 -169.402
lowerback -16.2523 0.973985 1.52362
upperback -7.01059 0.551422 1.28241
thorax 1.6652 0.0643602 0.572719
lowerneck -20.1433 4.79249 5.3751
upperneck 30.7674 4.3265 0.408434
head 13.9949 2.35335 -0.0348787
rclavicle 2.4612e-014 7.35503e-015
rhumerus -43.6687 2.99213 -83.0246
rradius 35.7151
rwrist 5.95252
rhand -20.5159 -13.6641
rfingers 7.12502
rthumb 5.84176 -43.5635
lclavicle 2.4612e-014 7.35503e-015
lhumerus -51.3832 -18.933 94.6107
lradius 36.2141
lwrist 42.2712
lhand -31.0205 7.15396
lfingers 7.12502
lthumb -4.30297 37.0902
rfemur -39.3616 23.4216 20.4212
rtibia 44.9133
rfoot -21.2207 -14.601
rtoes 1.89894
lfemur -34.7825 -13.0142 -20.1949
ltibia 33.6731
lfoot -14.6172 16.1771
ltoes 3.3293
1027
root 7.58263 15.1446 23.4084 188.431 -79.5307 -169.57
lowerback -16.0646 0.975843 1.54273
upperback -7.02374 0.561475 1.22667
thorax 1.55342 0.069245 0.503507
lowerneck -20.2925 4.80241 5.31496
upperneck 30.8625 4.32938 0.474977
head 14.0649 2.35654 0.00687585
rclavicle -3.32964e-015 -9.74045e-015
rhumerus -43.3934 3.08288 -83.2178
rradius 35.6206
rwrist 5.70768
rhand -20.5187 -13.7928
rfingers 7.12502
rthumb 5.83901 -43.6924
lclavicle -3.32964e-015 -9.74045e-015
lhumerus -51.0552 -19.6208 94.879
lradius 35.957
lwrist 41.9139
lhand -30.9974 7.05056
lfingers 7.12502
lthumb -4.28065 36.9873
rfemur -39.3645 23.4103 20.4723
rtibia 44.9351
rfoot -21.2183 -14.6071
rtoes 2.09217
lfemur -34.7879 -13.0991 -20.1347
ltibia 33.6823
lfoot -14.6124 16.2776
ltoes 3.20762
1028
root 7.5952 15.1437 23.3924 188.613 -79.5594 -169.785
lowerback -15.8646 0.977404 1.55276
upperback -7.0377 0.572921 1.1701
thorax 1.43425 0.0749731 0.43871
lowerneck -20.451 4.81578 5.28353
upperneck 30.9592 4.33541 0.515759
head 14.1397 2.36089 0.0344537
rclavicle -5.30507e-015 -3.22031e-014
rhumerus -43.1209 3.19015 -83.4094
rradius 35.519
rwrist 5.49956
rhand -20.4133 -13.8645
rfingers 7.12502
rthumb 5.94079 -43.7613
lclavicle -5.30507e-015 -3.22031e-014
lhumerus -50.6934 -20.3024 95.1346
lradius 35.6621
lwrist 41.5377
lhand -30.9845 6.94688
lfingers 7.12502
lthumb -4.26822 36.8839
rfemur -39.3861 23.384 20.5157
rtibia 44.971
rfoot -21.2122 -14.6007
rtoes 2.29589
lfemur -34.805 -13.3407 -20.0359
ltibia 33.6948
lfoot -14.6045 16.531
ltoes 3.13127
